<?xml version="1.0" encoding="UTF-8" standalone="no"?>

<svg
   xmlns:dc="http://purl.org/dc/elements/1.1/"
   xmlns:cc="http://creativecommons.org/ns#"
   xmlns:rdf="http://www.w3.org/1999/02/22-rdf-syntax-ns#"
   xmlns:svg="http://www.w3.org/2000/svg"
   xmlns="http://www.w3.org/2000/svg"
   xmlns:sodipodi="http://sodipodi.sourceforge.net/DTD/sodipodi-0.dtd"
   xmlns:inkscape="http://www.inkscape.org/namespaces/inkscape"
   width="400"
   height="156"
   id="svg2"
   version="1.1"
   inkscape:version="0.48.2 r9819"
   sodipodi:docname="jespaLogo.svg">
  <title
     id="title2995">Jespa Logo</title>
  <defs
     id="defs18" />
  <sodipodi:namedview
     id="base"
     pagecolor="#ffffff"
     bordercolor="#666666"
     borderopacity="1.0"
     inkscape:pageopacity="0.0"
     inkscape:pageshadow="2"
     inkscape:zoom="1"
     inkscape:cx="358.74985"
     inkscape:cy="96.540158"
     inkscape:document-units="px"
     inkscape:current-layer="layer1"
     showgrid="false"
     inkscape:window-width="1280"
     inkscape:window-height="947"
     inkscape:window-x="0"
     inkscape:window-y="27"
     inkscape:window-maximized="1"
     fit-margin-top="8"
     fit-margin-left="12"
     fit-margin-right="12"
     fit-margin-bottom="8"
     inkscape:showpageshadow="true" />
  <metadata
     id="metadata7">
    <rdf:RDF>
      <cc:Work
         rdf:about="">
        <dc:format>image/svg+xml</dc:format>
        <dc:type
           rdf:resource="http://purl.org/dc/dcmitype/StillImage" />
        <dc:title>Jespa Logo</dc:title>
        <dc:date>2011-12-01</dc:date>
        <dc:creator>
          <cc:Agent>
            <dc:title>Jespa</dc:title>
          </cc:Agent>
        </dc:creator>
      </cc:Work>
    </rdf:RDF>
  </metadata>
  <g
     inkscape:label="Layer 1"
     inkscape:groupmode="layer"
     id="layer1"
     transform="translate(-349.00086,-429.08365)">
    <path
       style="fill:#000000;fill-opacity:1;stroke:#000000;stroke-width:0.32126242px;stroke-linecap:butt;stroke-linejoin:miter;stroke-opacity:1;display:inline"
       d="m 470.6435,480.50627 c -0.55071,0.0798 -1.09246,0.22525 -1.61498,0.41509 -0.39697,0.14902 -0.7983,0.32862 -1.08531,0.65209 -0.25325,0.24534 -0.44533,0.54202 -0.61273,0.85036 -0.32917,0.56572 -0.51669,1.20073 -0.68013,1.83092 -0.0753,0.331 -0.16962,0.6678 -0.13307,1.01024 0.0148,0.58358 0.0749,1.16557 0.19755,1.7367 0.13414,0.62266 0.21575,1.24882 0.45473,1.84149 0.12234,0.32196 0.14101,0.71127 0.38868,0.98615 0.24767,0.27489 0.61936,0.48784 0.8178,0.77205 0.49128,0.74448 0.62336,1.18888 1.04531,1.97706 0.13798,0.25391 0.47206,0.88805 0.44911,1.18997 -0.0526,0.34162 -0.41315,0.54177 -0.72841,0.59066 -1.39255,0.22505 -2.79425,0.38562 -4.19077,0.58312 -1.42519,0.19841 -2.8548,0.36329 -4.2834,0.53457 -1.23115,0.12129 -2.46525,0.24838 -3.70361,0.24689 -1.9787,-0.0251 -3.95397,-0.15601 -5.92985,-0.25513 -2.37809,-0.13915 -4.75685,-0.26585 -7.13602,-0.38495 -0.35865,-0.0394 -0.73413,-0.0538 -1.05414,-0.24094 -0.28674,-0.2165 -0.44309,-0.55229 -0.53018,-0.89228 -0.35219,-1.22521 -0.69314,-2.45384 -1.05223,-3.67693 -0.17449,-0.53401 -0.33302,-1.07643 -0.59034,-1.5782 -0.11473,-0.29028 -0.30688,-0.59635 -0.63472,-0.66475 -0.27228,-0.0872 -0.5859,0.0121 -0.78035,0.2151 -0.3435,0.30585 -0.53841,0.73634 -0.67682,1.16637 -0.17075,0.48074 -0.13548,1.00338 -0.0563,1.49879 0.0885,0.61904 0.27105,1.21967 0.44354,1.81931 0.22495,0.70509 0.44575,1.41256 0.73423,2.0949 0.29421,0.70459 0.60632,1.40279 0.95406,2.0826 0.18294,0.35782 0.39908,0.69781 0.61804,1.03407 0.27645,0.37804 0.57785,0.73705 0.9152,1.06245 0.63959,0.64747 1.37853,1.18336 2.12863,1.69425 0.4733,0.31858 0.95421,0.63574 1.49153,0.83655 0.62453,0.25862 1.27695,0.44144 1.92453,0.63164 1.37621,0.3667 2.76339,0.72297 4.18338,0.86861 1.19779,0.10813 2.40108,0.12897 3.60199,0.18438 1.75461,0.0735 3.51058,0.12898 5.26272,0.24867 0.92741,0.0872 1.85541,0.21299 2.7567,0.45301 0.53348,0.14619 1.06847,0.32768 1.52331,0.65069 0.47975,0.29 0.8611,0.72676 1.10878,1.22789 0.37813,0.78085 0.57579,1.63195 0.81414,2.46216 0.24502,0.90673 0.44729,1.82444 0.64921,2.74155 0.19862,0.89843 0.30109,1.81387 0.44727,2.72143 0.0861,0.68727 0.17472,1.37419 0.23123,2.06467 0.19037,1.77507 0.23747,3.5609 0.36654,5.34068 0.11661,1.64514 0.18438,3.2931 0.27964,4.93952 0.091,1.67285 0.17217,3.34628 0.29249,5.01737 0.044,0.74279 0.12603,1.48286 0.20427,2.22257 0.17546,1.35962 0.50011,2.69325 0.76711,4.03643 0.4307,2.07394 0.89187,4.14145 1.35585,6.20815 0.23296,0.96592 0.49125,1.92628 0.775,2.87854 0.15547,0.52599 0.35032,1.03923 0.54309,1.55223 0.20107,0.48264 0.43293,0.95103 0.67923,1.41196 0.26338,0.43519 0.60537,0.82364 1.02081,1.11949 0.31832,0.24069 0.68227,0.41266 1.01743,0.62845 0.93325,0.56247 1.89502,1.07557 2.84374,1.61112 0.64327,0.35941 1.34114,0.67202 1.83441,1.23901 0.40014,0.42285 0.74153,0.89975 1.0418,1.3975 0.3357,0.60005 0.63015,1.22809 0.82665,1.88819 0.1281,0.48216 0.36516,0.9664 0.26904,1.47727 -0.0422,0.28168 -0.0681,0.56765 -0.009,0.84909 0.13721,0.50783 0.24072,1.03483 0.18311,1.56289 -0.0358,0.57328 -0.11741,1.14276 -0.14692,1.71675 -0.0191,0.34854 -0.0908,0.70485 0.0267,1.04446 0.10783,0.53437 0.4334,1.00361 0.50459,1.54723 0.0525,0.40031 -0.1924,0.75059 -0.38711,1.07646 -0.2416,0.35188 -0.51527,0.68182 -0.74767,1.04045 -0.23592,0.31563 -0.47184,0.63125 -0.70776,0.94687 -0.13065,0.33196 -0.10909,0.74892 0.15059,1.01398 0.33209,0.3553 0.81057,0.49589 1.25493,0.65257 0.49297,0.13338 1.00446,0.14638 1.51105,0.17235 1.14767,0.0674 2.29796,0.075 3.44693,0.10944 0.86773,0.0115 1.73916,0.034 2.60173,-0.081 0.48205,-0.0432 0.96054,-0.11736 1.4301,-0.23502 0.35004,-0.0799 0.6808,-0.22412 0.99945,-0.38743 0.2811,-0.18507 0.55719,-0.39315 0.73155,-0.68782 0.19991,-0.2986 0.36608,-0.61848 0.56148,-0.91988 0.41937,-0.75554 0.79733,-1.53352 1.23396,-2.27943 0.15843,-0.28916 0.28621,-0.60052 0.50492,-0.85149 0.34378,-0.29447 0.81238,-0.32013 1.23295,-0.4238 0.4298,-0.0903 0.87549,-0.18545 1.23649,-0.45042 0.28332,-0.17747 0.5523,-0.38528 0.80086,-0.60654 0.37657,-0.43404 0.61776,-0.98608 0.65513,-1.56119 -0.003,-0.30278 -0.0664,-0.60023 -0.21702,-0.86573 -0.16453,-0.31534 -0.36773,-0.61007 -0.56144,-0.90781 -0.26239,-0.35755 -0.55099,-0.69729 -0.87805,-0.99735 -0.26164,-0.21501 -0.56062,-0.39576 -0.89825,-0.45473 -0.61318,-0.16235 -1.24169,-0.25219 -1.8626,-0.37855 -0.28693,-0.081 -0.57583,-0.32899 -0.54213,-0.65256 0.0787,-0.42217 0.37207,-0.75642 0.57383,-1.12389 0.15983,-0.26759 0.34529,-0.54367 0.4,-0.85237 -0.007,-0.30589 -0.15196,-0.61007 -0.36417,-0.82749 -1.06985,-1.11089 -2.22813,-2.1324 -3.40633,-3.1261 -0.24052,-0.18499 -0.47362,-0.38339 -0.62743,-0.64978 -0.34168,-0.51116 -0.57511,-1.08454 -0.76085,-1.66828 -0.19245,-0.55604 -0.32414,-1.13103 -0.45988,-1.70283 -0.13799,-0.63232 -0.2756,-1.26499 -0.35845,-1.90742 -0.19386,-1.31823 -0.29125,-2.64837 -0.36862,-3.97781 -0.0358,-0.66366 -0.0546,-1.32892 -0.005,-1.99244 0.0537,-0.8126 0.18974,-1.61701 0.28352,-2.42552 0.15676,-1.14255 0.33777,-2.28238 0.58582,-3.40905 0.30119,-1.526 0.60237,-3.052 0.90356,-4.578 0.0358,-0.62796 0.1059,-1.26607 -0.0301,-1.88741 -0.15422,-1.10127 -0.35898,-2.19458 -0.53209,-3.29294 -0.21324,-1.24056 -0.45053,-2.47715 -0.62647,-3.7238 -0.0835,-0.55981 -0.12602,-1.12972 -0.069,-1.69426 0.0208,-0.38544 0.10489,-0.76535 0.2035,-1.13771 0.14489,-0.38148 0.297,-0.76235 0.52235,-1.10482 0.4326,-0.71745 1.02713,-1.31551 1.61971,-1.90063 0.61827,-0.5593 1.30092,-1.0423 1.95734,-1.55546 0.8565,-0.6615 1.72718,-1.3044 2.57684,-1.97477 0.63225,-0.67545 1.1199,-1.46564 1.63643,-2.22876 0.29459,-0.47896 0.63774,-0.93367 0.83829,-1.46374 0.17378,-0.42364 0.26944,-0.87491 0.34967,-1.32418 0.24014,-0.98591 0.3349,-1.99972 0.37433,-3.0117 0.0306,-0.55457 0.0631,-1.11472 -0.009,-1.66689 -0.11261,-0.47345 -0.18265,-0.9707 -0.42933,-1.39832 -0.16516,-0.27425 -0.39779,-0.49707 -0.62245,-0.72284 -0.4179,-0.31137 -0.81974,-0.64774 -1.27422,-0.90557 -0.61873,-0.38238 -1.29694,-0.65436 -1.95516,-0.95977 -0.83919,-0.38084 -1.67814,-0.76211 -2.53101,-1.11162 -1.17444,-0.49652 -2.33686,-1.02233 -3.52987,-1.47364 -0.99527,-0.38374 -1.99325,-0.76727 -3.02007,-1.05883 -0.79127,-0.23203 -1.60615,-0.36618 -2.42265,-0.47221 -1.53769,-0.22686 -3.08729,-0.36343 -4.62308,-0.60424 -0.45242,-0.12688 -0.92023,-0.25434 -1.29509,-0.55217 -0.25707,-0.15221 -0.44086,-0.39748 -0.60519,-0.64123 -0.26099,-0.37027 -0.4464,-0.78761 -0.58951,-1.21607 -0.15075,-0.52421 -0.2103,-1.07212 -0.17067,-1.61635 0.0266,-0.35679 0.18088,-1.1859 0.15017,-1.54201 -0.0688,-0.68147 -0.35707,-0.88323 -0.47493,-1.55773 -0.14181,-0.75321 -0.34764,-1.4931 -0.56944,-2.2259 -0.12939,-0.34537 -0.25689,-0.69623 -0.47493,-0.9973 -0.3328,-0.52421 -0.82456,-0.93432 -1.36513,-1.23123 -0.5247,-0.26791 -1.10742,-0.39077 -1.6782,-0.51836 -0.51888,-0.089 -1.03454,-0.20539 -1.561,-0.24014 l -0.0579,0.01 -0.002,3.2e-4 z m 17.78991,22.72932 c 1.21576,0.0919 2.4317,0.18317 3.64431,0.31122 0.44075,0.11878 0.90289,0.29307 1.18466,0.67265 0.18685,0.28524 0.13641,0.65957 0,0.95375 -0.26253,0.547 -0.53801,1.08772 -0.85293,1.60678 -0.45068,0.77224 -0.91132,1.54118 -1.45041,2.25578 -0.73077,0.99582 -1.42664,2.01981 -2.22445,2.96426 -0.13905,0.22272 -0.32552,0.49377 -0.6109,0.51201 -0.256,0.006 -0.45617,-0.24516 -0.45816,-0.49022 -0.0291,-0.39384 -0.0145,-0.79005 -0.0244,-1.18485 0.0179,-1.6739 0.0608,-3.34736 0.0795,-5.02124 -0.0219,-0.64902 -0.0867,-1.29786 -0.0502,-1.94766 0.0655,-0.33981 0.36088,-0.59759 0.70277,-0.63248 l 0.0587,0 0.002,0 z m 0.70276,58.15854 c 0.34946,0.0949 0.53195,0.46165 0.56826,0.79668 0.0869,0.49607 0.0312,1.00382 -0.0258,1.50005 -0.0355,0.26808 0.0156,0.56387 -0.1309,0.80546 -0.13726,0.25426 -0.51377,0.22847 -0.63049,-0.0315 -0.14933,-0.26533 -0.0675,-0.58633 -0.11128,-0.87636 -0.0194,-0.58032 -0.0874,-1.16263 -0.0313,-1.74258 0.0168,-0.20661 0.12437,-0.44579 0.36142,-0.45178 z"
       id="JespaShadow"
 onmouseover="evt.target.setAttribute('style', 'fill:#ffffff;stroke:#000000');"
 onmouseout="evt.target.setAttribute('style', 'fill:#000000;stroke:#000000');"

       inkscape:connector-curvature="0"
       sodipodi:nodetypes="ccccccccsccccccccccccccccccccccccccccccccccccccccccccccccccccccccccccccccccccccccccccccccccccccccccccccccccccccccccccccccccccccccccccccccccccccccccccccccccccscccccc" />
    <path
       style="fill:#ffffff;fill-opacity:1;fill-rule:evenodd;stroke:#000000;stroke-width:1.60631216;stroke-linecap:butt;stroke-linejoin:miter;stroke-miterlimit:4;stroke-opacity:1;stroke-dasharray:none"
       d="m 399.91557,435.66004 c -22.70831,0 -41.11156,31.92693 -41.11156,71.31023 0,39.38329 18.40325,71.31022 41.11156,71.31022 22.7083,0 41.12159,-31.92693 41.12159,-71.31022 0,-39.3833 -18.41329,-71.31023 -41.12159,-71.31023 z m 0.12047,30.5099 c 3.21731,-0.13863 6.46909,2.92317 9.12586,9.33668 5.86297,14.15341 6.62308,39.27677 1.69667,56.12054 -4.92695,16.84364 -13.67357,19.0231 -19.53677,4.86913 -5.86322,-14.15397 -6.62362,-39.27689 -1.69667,-56.12053 2.69442,-9.21137 6.52795,-14.03851 10.41091,-14.20582 z"
       id="Cero"
 onmouseover="evt.target.setAttribute('style', 'fill:#000000;stroke:#000000');"
 onmouseout="evt.target.setAttribute('style', 'fill:#ffffff;stroke:#000000');"
       inkscape:connector-curvature="0" />
    <g
       style="font-size:316.27758789px;font-style:italic;font-variant:normal;font-weight:bold;font-stretch:normal;line-height:125%;letter-spacing:0px;word-spacing:0px;writing-mode:lr-tb;fill:#ffffff;fill-opacity:1;stroke:#000000;stroke-width:8;stroke-miterlimit:4;stroke-opacity:1;stroke-dasharray:none;font-family:Impact;-inkscape-font-specification:Impact Bold Italic"
       id="text2984"
       transform="matrix(0.32126244,0,0,0.32126244,314.08829,339.1508)">
      <path
         d="m 730.23778,460.68742 -33.51184,167.09587 c -4.94194,25.01811 -8.39093,41.13055 -10.34697,48.33735 -1.95624,7.10392 -5.61114,13.5386 -10.9647,19.30405 -5.25079,5.76549 -11.68546,9.78073 -19.30405,12.04573 -7.61873,2.16206 -18.6349,3.24308 -33.04854,3.24308 l -32.58524,0 8.80265,-43.70437 c 3.80931,0.30891 6.58909,0.46334 8.33935,0.46329 4.63294,5e-5 8.49375,-1.13246 11.58243,-3.39751 3.19157,-2.26496 5.30214,-5.04474 6.33173,-8.33935 1.13246,-3.2945 2.62531,-9.6777 4.47854,-19.14962 l 35.21059,-175.89852 65.01605,0"
         style="fill:#ffffff;fill-opacity:1;stroke:#000000;stroke-width:8;stroke-miterlimit:4;stroke-opacity:1;stroke-dasharray:none"
         id="J"
 onmouseover="evt.target.setAttribute('transform', 'translate(0,-20)')"
 onmouseout="evt.target.setAttribute('transform', 'translate(0,0)')"
         inkscape:connector-curvature="0" />
      <path
         d="m 755.71913,460.68742 108.41155,0 -10.0381,50.0361 -43.39551,0 -9.42038,47.41075 40.61572,0 -9.5748,47.56519 -40.61573,0 -10.9647,54.97794 47.71961,0 -10.0381,50.0361 -112.73567,0 50.03611,-250.02608"
         style="fill:#ffffff;fill-opacity:1;stroke:#000000;stroke-width:8;stroke-miterlimit:4;stroke-opacity:1;stroke-dasharray:none"
         id="E"
 onmouseover="evt.target.setAttribute('transform', 'translate(0,-20)')"
 onmouseout="evt.target.setAttribute('transform', 'translate(0,0)')"

         inkscape:connector-curvature="0" />
      <path
         d="m 1009.9149,536.3593 -60.3831,0 3.70638,-18.53189 c 1.7501,-8.64801 2.05896,-14.15609 0.92659,-16.52427 -1.02968,-2.36775 -3.34616,-3.55173 -6.94946,-3.55194 -3.9124,2.1e-4 -7.20696,1.59601 -9.88367,4.7874 -2.67694,3.19181 -4.63308,8.03069 -5.86843,14.51665 -1.64739,8.33954 -1.80182,14.61978 -0.4633,18.84076 1.33831,4.22132 6.48605,9.31758 15.44324,15.28881 25.42972,17.19361 40.82147,31.29843 46.17529,42.31448 5.25053,11.01628 5.45644,28.77599 0.61773,53.27918 -3.60359,17.81125 -8.33951,30.93799 -14.20778,39.38027 -5.86858,8.44232 -15.34043,15.5462 -28.41556,21.31167 -13.0754,5.66252 -27.54055,8.49378 -43.39551,8.49378 -17.39945,0 -31.60722,-3.29456 -42.62335,-9.88367 -10.91325,-6.58911 -17.29645,-14.97993 -19.14962,-25.17249 -1.75025,-10.19249 -0.7207,-24.65765 3.08865,-43.3955 l 3.24308,-16.36984 60.38307,0 -6.02286,30.42319 c -1.95622,9.36895 -2.36804,15.3918 -1.23546,18.06859 1.23538,2.67687 4.01516,4.01528 8.33935,4.01524 4.32402,4e-5 7.87596,-1.69872 10.65584,-5.09627 2.77968,-3.39747 4.83878,-8.44225 6.17729,-15.13438 2.98559,-14.72248 2.93411,-24.34876 -0.15443,-28.87886 -3.29466,-4.52992 -11.94287,-12.0971 -25.94464,-22.70156 -14.00194,-10.7072 -23.16492,-18.48029 -27.48897,-23.3193 -4.2212,-4.83874 -7.2069,-11.53081 -8.95708,-20.07621 -1.75028,-8.5451 -1.28698,-19.45831 1.38989,-32.73967 3.80928,-19.14942 9.0085,-33.15128 15.59767,-42.00562 6.69201,-8.85389 16.00942,-15.75186 27.95227,-20.69394 11.94267,-5.04454 25.63567,-7.56694 41.07902,-7.56719 16.88447,2.5e-4 30.68041,2.72856 41.38789,8.18492 10.81007,5.45685 17.29627,12.35482 19.45847,20.69394 2.2648,8.23661 1.4412,22.28995 -2.4709,42.16005 l -2.0076,9.88367"
         style="fill:#ffffff;fill-opacity:1;stroke:#000000;stroke-width:8;stroke-miterlimit:4;stroke-opacity:1;stroke-dasharray:none"
         id="S"
         onmouseover="evt.target.setAttribute('transform', 'translate(0,-20)')"
         onmouseout="evt.target.setAttribute('transform', 'translate(0,0)')"
         inkscape:connector-curvature="0" />
      <path
         d="m 1050.9939,460.68742 65.4793,0 c 17.7081,2.5e-4 31.0408,1.39014 39.998,4.16967 8.9569,2.78003 15.2887,6.79527 18.9952,12.04573 3.8092,5.25093 5.8168,11.63413 6.0229,19.14962 0.2057,7.41297 -1.2871,18.94391 -4.4785,34.59286 l -4.3242,21.77497 c -3.1917,15.95816 -7.1555,27.59206 -11.8913,34.90173 -4.736,7.30992 -11.9429,12.92096 -21.6205,16.83313 -9.5749,3.91239 -21.4662,5.86854 -35.6739,5.86844 l -17.4508,0 -20.0763,100.68993 -65.016,0 50.0361,-250.02608 m 56.3678,42.77778 -12.6634,63.62615 c 1.8531,0.1031 3.4489,0.15458 4.7874,0.15444 5.9712,1.4e-4 10.3983,-1.44123 13.2812,-4.32411 2.8826,-2.98554 5.2505,-9.11136 7.1039,-18.37746 l 4.1696,-20.53951 c 1.6472,-8.54507 1.3898,-14.10463 -0.7721,-16.6787 -2.1622,-2.57367 -7.4644,-3.8606 -15.9066,-3.86081"
         style="fill:#ffffff;fill-opacity:1;stroke:#000000;stroke-width:8;stroke-miterlimit:4;stroke-opacity:1;stroke-dasharray:none"
         id="P"
         onmouseover="evt.target.setAttribute('transform', 'translate(0,-20)')"
         onmouseout="evt.target.setAttribute('transform', 'translate(0,0)')"
         inkscape:connector-curvature="0" />
      <path
         d="m 1313.9923,460.68742 -12.8179,250.02608 -66.5603,0 5.714,-44.93983 -23.3193,0 -12.8179,44.93983 -67.3325,0 83.0846,-250.02608 94.0493,0 m -66.5603,160.76414 c 2.3678,-28.31249 6.0227,-63.26566 10.9647,-104.85961 -16.0611,47.77124 -27.1288,82.72441 -33.203,104.85961 l 22.2383,0"
         style="fill:#ffffff;fill-opacity:1;stroke:#000000;stroke-width:8;stroke-miterlimit:4;stroke-opacity:1;stroke-dasharray:none"
         id="A"
         onmouseover="evt.target.setAttribute('transform', 'translate(0,-20)')"
         onmouseout="evt.target.setAttribute('transform', 'translate(0,0)')"
         inkscape:connector-curvature="0" />
    </g>
  </g>
</svg>
